<svg xmlns="http://www.w3.org/2000/svg" xmlns:xlink="http://www.w3.org/1999/xlink" width="559" zoomAndPan="magnify" viewBox="0 0 419.25 595.499987" height="794" preserveAspectRatio="xMidYMid meet" version="1.0"><defs><clipPath id="418dc79098"><path d="M 0 0.28125 L 418.5 0.28125 L 418.5 594.71875 L 0 594.71875 Z M 0 0.28125 " clip-rule="nonzero"/></clipPath><clipPath id="0e522f194f"><path d="M 66.398438 42.160156 L 352.386719 42.160156 L 352.386719 538.523438 L 66.398438 538.523438 Z M 66.398438 42.160156 " clip-rule="nonzero"/></clipPath><clipPath id="271743dd79"><path d="M 66.398438 172 L 352.386719 172 L 352.386719 538.523438 L 66.398438 538.523438 Z M 66.398438 172 " clip-rule="nonzero"/></clipPath></defs><g clip-path="url(#418dc79098)"><path fill="#ffffff" d="M 0 0.28125 L 418.5 0.28125 L 418.5 594.71875 L 0 594.71875 Z M 0 0.28125 " fill-opacity="1" fill-rule="nonzero"/><path fill="#ffffff" d="M 0 0.28125 L 418.5 0.28125 L 418.5 594.71875 L 0 594.71875 Z M 0 0.28125 " fill-opacity="1" fill-rule="nonzero"/></g><path fill="#ffffff" d="M 67.710938 173.410156 C 67.710938 173.410156 109.832031 107.375 112.488281 107.375 C 115.144531 107.375 139.433594 113.449219 141.332031 113.449219 C 143.230469 113.449219 195.222656 43.242188 197.496094 43.621094 C 199.773438 44 252.90625 96.84375 253.757812 96.84375 C 254.613281 96.84375 270.265625 80.242188 271.121094 80.242188 C 271.972656 80.242188 290.410156 100.164062 290.726562 100.230469 C 291.042969 100.292969 299.519531 95.167969 299.898438 95.167969 C 300.277344 95.167969 351.101562 173.410156 351.101562 173.410156 C 351.101562 173.410156 338.195312 228.625 338.070312 228.625 C 337.945312 228.625 329.152344 221.734375 329.058594 221.734375 C 328.960938 221.734375 310.082031 349.402344 309.828125 349.402344 C 309.578125 349.402344 294.429688 342.003906 294.175781 342.003906 C 293.921875 342.003906 265.996094 461.261719 265.808594 461.640625 C 265.617188 462.019531 249.519531 461.652344 249.285156 461.734375 C 248.835938 461.890625 221.3125 536.96875 221.3125 536.96875 C 221.3125 536.96875 184.089844 401.617188 183.835938 401.617188 C 183.835938 401.617188 159.675781 414.769531 159.359375 414.769531 C 159.042969 414.769531 143.007812 365.5 142.914062 365.5 C 142.816406 365.5 127.363281 390.316406 127.21875 390.316406 C 127.078125 390.316406 93.738281 277.691406 93.46875 277.628906 C 93.007812 277.527344 81.703125 275.210938 81.511719 275.019531 C 81.324219 274.832031 67.710938 173.410156 67.710938 173.410156 Z M 67.710938 173.410156 " fill-opacity="1" fill-rule="nonzero"/><g clip-path="url(#0e522f194f)"><path fill="#144b91" d="M 221.3125 538.28125 C 221.292969 538.28125 221.277344 538.28125 221.257812 538.277344 C 220.6875 538.253906 220.199219 537.867188 220.050781 537.316406 C 208.257812 494.441406 186.441406 415.269531 183.050781 403.53125 C 180.910156 404.695312 176.636719 407.019531 172.339844 409.34375 C 159.886719 416.082031 159.828125 416.082031 159.359375 416.082031 C 158.402344 416.082031 158.144531 415.375 157.757812 414.304688 C 157.550781 413.726562 157.25 412.867188 156.867188 411.75 C 156.175781 409.734375 155.222656 406.894531 153.953125 403.070312 C 151.632812 396.101562 148.703125 387.195312 146.347656 380.035156 C 144.804688 375.34375 143.398438 371.066406 142.546875 368.496094 C 141.265625 370.523438 139.296875 373.660156 137.367188 376.734375 C 135.246094 380.117188 133.003906 383.6875 131.285156 386.410156 C 130.421875 387.777344 129.691406 388.929688 129.171875 389.742188 C 128.101562 391.414062 127.964844 391.625 127.21875 391.625 C 126.242188 391.625 126.039062 390.964844 125.667969 389.765625 C 125.480469 389.148438 125.203125 388.246094 124.855469 387.085938 C 124.15625 384.769531 123.160156 381.4375 121.941406 377.363281 C 119.511719 369.21875 116.203125 358.113281 112.679688 346.269531 C 104.351562 318.300781 94.109375 283.890625 92.472656 278.757812 C 92.332031 278.730469 92.171875 278.695312 92 278.660156 C 81.019531 276.378906 80.96875 276.328125 80.585938 275.945312 C 80.359375 275.714844 80.019531 273.996094 79.570312 270.78125 C 79.179688 267.988281 78.632812 264.007812 77.980469 259.242188 C 76.828125 250.804688 75.234375 239.054688 73.242188 224.316406 C 69.816406 198.9375 66.410156 173.582031 66.410156 173.582031 C 66.371094 173.277344 66.4375 172.964844 66.605469 172.703125 C 66.710938 172.539062 77.265625 156 88.007812 139.671875 C 94.324219 130.078125 99.46875 122.429688 103.296875 116.945312 C 110.894531 106.066406 111.597656 106.066406 112.488281 106.066406 C 113.96875 106.066406 120.046875 107.433594 129.15625 109.515625 C 133.980469 110.621094 139.390625 111.859375 140.980469 112.097656 C 143.269531 109.929688 154.878906 94.890625 165.171875 81.558594 C 172.421875 72.167969 179.921875 62.453125 185.789062 55.074219 C 196.136719 42.066406 196.695312 42.160156 197.714844 42.328125 C 198.351562 42.433594 199.007812 42.542969 211.320312 54.261719 C 218.335938 60.941406 227.179688 69.53125 234.980469 77.113281 C 243.058594 84.960938 251.382812 93.042969 253.796875 95.203125 C 255.269531 93.898438 258.8125 90.332031 261.511719 87.621094 C 270.148438 78.933594 270.296875 78.933594 271.121094 78.933594 C 272 78.933594 272.234375 78.933594 286.117188 93.558594 C 288.050781 95.597656 290.035156 97.6875 290.988281 98.660156 C 291.902344 98.164062 293.542969 97.21875 294.828125 96.476562 C 299.363281 93.859375 299.414062 93.859375 299.898438 93.859375 C 300.414062 93.859375 301.546875 95.171875 303.296875 97.804688 C 304.652344 99.835938 306.621094 102.820312 309.15625 106.675781 C 313.417969 113.164062 319.335938 122.214844 326.738281 133.574219 C 339.347656 152.910156 352.070312 172.5 352.199219 172.695312 C 352.394531 172.992188 352.457031 173.359375 352.375 173.707031 C 352.375 173.707031 349.148438 187.511719 345.910156 201.316406 C 344.289062 208.21875 342.664062 215.121094 341.433594 220.300781 C 340.820312 222.890625 340.304688 225.050781 339.941406 226.5625 C 339.757812 227.320312 339.609375 227.917969 339.507812 228.324219 C 339.320312 229.078125 339.105469 229.9375 338.070312 229.9375 C 337.726562 229.9375 335.796875 228.574219 332.277344 225.847656 C 331.511719 225.253906 330.699219 224.625 330.011719 224.09375 C 329.167969 229.644531 326.8125 245.433594 324.164062 263.210938 C 321.351562 282.074219 318.160156 303.457031 315.617188 320.390625 C 314.226562 329.644531 313.191406 336.5 312.445312 341.347656 C 312.046875 343.941406 311.726562 346.007812 311.5 347.425781 C 311.386719 348.140625 311.296875 348.691406 311.230469 349.0625 C 311.125 349.679688 310.949219 350.710938 309.832031 350.710938 C 309.546875 350.710938 306.75 349.433594 301.4375 346.882812 C 299.199219 345.808594 296.582031 344.550781 295.042969 343.828125 C 293.054688 351.824219 283.597656 391.976562 276.527344 422 C 270.257812 448.628906 267.074219 462.035156 266.980469 462.222656 C 266.558594 463.066406 266.246094 463.117188 261.367188 463.125 C 258.871094 463.125 255.816406 463.089844 253.363281 463.0625 C 252.144531 463.050781 250.902344 463.035156 250.132812 463.03125 C 247.777344 468.824219 232.667969 509.796875 222.542969 537.421875 C 222.351562 537.9375 221.859375 538.277344 221.3125 538.277344 Z M 183.835938 400.304688 C 184.820312 400.304688 185.078125 401.160156 185.21875 401.621094 C 185.296875 401.882812 185.410156 402.269531 185.558594 402.769531 C 185.84375 403.765625 186.257812 405.222656 186.78125 407.074219 C 187.769531 410.585938 189.207031 415.746094 191.058594 422.414062 C 194.179688 433.640625 198.511719 449.296875 203.929688 468.945312 C 211.320312 495.71875 218.765625 522.773438 221.488281 532.679688 C 223.863281 526.214844 228.890625 512.527344 233.902344 498.957031 C 237.929688 488.046875 241.15625 479.34375 243.496094 473.097656 C 244.886719 469.382812 245.976562 466.503906 246.730469 464.542969 C 247.707031 461.996094 248.414062 460.648438 248.851562 460.496094 C 249.046875 460.429688 250.558594 460.410156 253.390625 460.445312 C 256.527344 460.480469 262.609375 460.550781 264.753906 460.457031 C 265.675781 456.648438 269.558594 440.167969 273.976562 421.398438 C 278.097656 403.90625 282.765625 384.078125 286.453125 368.503906 C 288.464844 360 289.964844 353.703125 291.03125 349.257812 C 291.601562 346.875 292.0625 344.984375 292.382812 343.6875 C 292.542969 343.03125 292.671875 342.523438 292.757812 342.183594 C 292.914062 341.589844 293.148438 340.691406 294.175781 340.691406 C 294.457031 340.691406 297.257812 341.96875 302.570312 344.519531 C 304.746094 345.566406 307.28125 346.785156 308.835938 347.515625 C 310.25 338.738281 316.726562 295.3125 321.570312 262.824219 C 323.273438 251.398438 324.8125 241.074219 325.929688 233.609375 C 326.488281 229.878906 326.941406 226.859375 327.257812 224.773438 C 327.417969 223.726562 327.539062 222.917969 327.625 222.367188 C 327.789062 221.324219 327.929688 220.421875 329.058594 220.421875 C 329.386719 220.421875 330.992188 221.539062 333.878906 223.777344 C 334.96875 224.621094 336.289062 225.640625 337.285156 226.40625 C 339.199219 218.503906 346.542969 187.160156 349.699219 173.65625 C 336.554688 153.421875 304.300781 103.855469 299.488281 96.832031 C 298.613281 97.316406 297.234375 98.113281 296.136719 98.746094 C 292.789062 100.679688 290.902344 101.601562 290.472656 101.515625 C 290.125 101.445312 288.039062 99.394531 284.214844 95.363281 C 280.277344 91.214844 273.296875 83.855469 271.105469 81.867188 C 269.644531 83.15625 266.082031 86.742188 263.367188 89.46875 C 254.730469 98.15625 254.582031 98.15625 253.757812 98.15625 C 253.074219 98.15625 253 98.15625 246.832031 92.234375 C 243.269531 88.816406 238.355469 84.042969 233.15625 78.992188 C 220.324219 66.527344 201.285156 48.03125 197.523438 45.167969 C 194.171875 48.285156 178.699219 68.324219 167.246094 83.160156 C 142.851562 114.757812 142.53125 114.757812 141.332031 114.757812 C 140.410156 114.757812 136.738281 113.9375 128.570312 112.070312 C 122.703125 110.726562 114.792969 108.917969 112.796875 108.707031 C 109.128906 111.894531 84.324219 149.8125 69.070312 173.710938 C 73.460938 206.414062 81.554688 266.496094 82.671875 273.984375 C 84.039062 274.308594 87.34375 275.015625 92.53125 276.09375 C 93.214844 276.238281 93.667969 276.332031 93.753906 276.351562 C 94.496094 276.515625 94.683594 277.09375 94.863281 277.648438 C 94.957031 277.933594 95.089844 278.347656 95.257812 278.890625 C 95.589844 279.960938 96.066406 281.527344 96.664062 283.5 C 97.785156 287.195312 99.363281 292.457031 101.496094 299.585938 C 105.421875 312.707031 110.609375 330.140625 115.191406 345.523438 C 120.570312 363.601562 125.710938 380.867188 127.644531 387.261719 C 129.425781 384.460938 132.507812 379.542969 135.148438 375.34375 C 136.878906 372.578125 138.535156 369.945312 139.761719 368 C 140.375 367.023438 140.882812 366.222656 141.238281 365.664062 C 141.980469 364.5 142.179688 364.1875 142.914062 364.1875 C 143.867188 364.1875 144.046875 364.726562 144.53125 366.167969 C 144.769531 366.871094 145.105469 367.894531 145.527344 369.164062 C 146.367188 371.699219 147.527344 375.230469 148.835938 379.214844 C 152.5 390.355469 158.347656 408.132812 160.058594 412.960938 C 163.773438 411.015625 175.277344 404.78125 183.210938 400.464844 C 183.402344 400.359375 183.617188 400.304688 183.835938 400.304688 Z M 93.179688 278.90625 L 93.183594 278.90625 Z M 112.976562 108.566406 Z M 270.550781 81.40625 Z M 270.550781 81.40625 " fill-opacity="1" fill-rule="nonzero"/></g><path fill="#144b91" d="M 67.710938 173.410156 L 351.101562 173.410156 C 351.101562 173.410156 338.199219 228.625 338.070312 228.625 C 337.945312 228.625 329.152344 221.730469 329.058594 221.730469 C 328.960938 221.730469 310.082031 349.402344 309.828125 349.402344 C 309.578125 349.402344 294.429688 342.003906 294.175781 342.003906 C 293.921875 342.003906 265.996094 461.257812 265.808594 461.640625 C 265.617188 462.019531 249.519531 461.652344 249.285156 461.734375 C 248.835938 461.890625 221.3125 536.96875 221.3125 536.96875 C 221.3125 536.96875 184.089844 401.613281 183.835938 401.613281 C 183.835938 401.613281 159.675781 414.769531 159.359375 414.769531 C 159.042969 414.769531 143.007812 365.5 142.914062 365.5 C 142.816406 365.5 127.363281 390.316406 127.21875 390.316406 C 127.078125 390.316406 93.738281 277.691406 93.46875 277.628906 C 93.007812 277.527344 81.703125 275.210938 81.511719 275.019531 C 81.324219 274.832031 67.710938 173.410156 67.710938 173.410156 Z M 67.710938 173.410156 " fill-opacity="1" fill-rule="nonzero"/><g clip-path="url(#271743dd79)"><path fill="#144b91" d="M 221.3125 538.28125 C 221.292969 538.28125 221.277344 538.28125 221.257812 538.277344 C 220.6875 538.253906 220.199219 537.867188 220.050781 537.316406 C 208.257812 494.441406 186.441406 415.269531 183.050781 403.53125 C 180.910156 404.695312 176.636719 407.019531 172.339844 409.34375 C 159.886719 416.082031 159.828125 416.082031 159.359375 416.082031 C 158.402344 416.082031 158.144531 415.375 157.757812 414.304688 C 157.550781 413.726562 157.25 412.867188 156.867188 411.75 C 156.175781 409.734375 155.222656 406.894531 153.953125 403.070312 C 151.632812 396.101562 148.703125 387.195312 146.347656 380.035156 C 144.804688 375.34375 143.398438 371.070312 142.546875 368.496094 C 141.265625 370.523438 139.296875 373.660156 137.367188 376.734375 C 135.246094 380.117188 133.003906 383.6875 131.285156 386.410156 C 130.421875 387.777344 129.691406 388.929688 129.171875 389.742188 C 128.101562 391.414062 127.964844 391.625 127.21875 391.625 C 126.242188 391.625 126.039062 390.964844 125.667969 389.765625 C 125.480469 389.148438 125.203125 388.246094 124.855469 387.085938 C 124.15625 384.769531 123.160156 381.4375 121.941406 377.363281 C 119.511719 369.21875 116.203125 358.113281 112.679688 346.269531 C 104.351562 318.300781 94.109375 283.890625 92.472656 278.757812 C 92.332031 278.730469 92.171875 278.695312 92 278.660156 C 81.019531 276.378906 80.96875 276.328125 80.585938 275.945312 C 80.359375 275.714844 80.019531 273.996094 79.570312 270.78125 C 79.179688 267.988281 78.632812 264.007812 77.980469 259.238281 C 76.828125 250.804688 75.234375 239.054688 73.242188 224.316406 C 69.816406 198.9375 66.410156 173.582031 66.410156 173.582031 C 66.359375 173.207031 66.472656 172.832031 66.722656 172.546875 C 66.972656 172.261719 67.332031 172.097656 67.710938 172.097656 L 351.101562 172.097656 C 351.5 172.097656 351.878906 172.28125 352.125 172.59375 C 352.375 172.90625 352.46875 173.316406 352.375 173.707031 C 352.375 173.707031 349.148438 187.511719 345.910156 201.316406 C 344.289062 208.21875 342.664062 215.125 341.433594 220.300781 C 340.820312 222.890625 340.304688 225.050781 339.941406 226.5625 C 339.757812 227.320312 339.609375 227.917969 339.507812 228.324219 C 339.320312 229.078125 339.105469 229.9375 338.070312 229.9375 C 337.726562 229.9375 335.796875 228.574219 332.277344 225.847656 C 331.511719 225.253906 330.699219 224.625 330.011719 224.09375 C 329.167969 229.644531 326.8125 245.433594 324.164062 263.210938 C 321.351562 282.074219 318.160156 303.457031 315.617188 320.390625 C 314.226562 329.644531 313.191406 336.5 312.445312 341.347656 C 312.046875 343.945312 311.726562 346.007812 311.5 347.425781 C 311.386719 348.140625 311.296875 348.691406 311.230469 349.0625 C 311.125 349.679688 310.949219 350.710938 309.832031 350.710938 C 309.546875 350.710938 306.75 349.433594 301.4375 346.882812 C 299.199219 345.808594 296.582031 344.550781 295.042969 343.828125 C 293.054688 351.824219 283.597656 391.976562 276.527344 422 C 270.257812 448.628906 267.074219 462.035156 266.980469 462.222656 C 266.492188 463.195312 266.484375 463.214844 253.363281 463.0625 C 252.144531 463.050781 250.902344 463.035156 250.132812 463.03125 C 247.777344 468.824219 232.667969 509.796875 222.542969 537.421875 C 222.351562 537.9375 221.859375 538.28125 221.3125 538.28125 Z M 183.835938 400.304688 C 184.820312 400.304688 185.078125 401.160156 185.21875 401.621094 C 185.296875 401.882812 185.410156 402.269531 185.558594 402.769531 C 185.84375 403.765625 186.257812 405.222656 186.78125 407.074219 C 187.769531 410.585938 189.207031 415.746094 191.058594 422.414062 C 194.179688 433.640625 198.511719 449.296875 203.929688 468.945312 C 211.320312 495.71875 218.765625 522.773438 221.488281 532.679688 C 223.863281 526.214844 228.890625 512.527344 233.902344 498.957031 C 237.929688 488.046875 241.15625 479.34375 243.496094 473.097656 C 244.886719 469.382812 245.976562 466.503906 246.730469 464.542969 C 247.707031 461.996094 248.414062 460.648438 248.851562 460.496094 C 249.046875 460.429688 250.558594 460.410156 253.390625 460.445312 C 256.527344 460.480469 262.609375 460.550781 264.753906 460.457031 C 265.675781 456.648438 269.558594 440.167969 273.976562 421.398438 C 278.097656 403.90625 282.765625 384.078125 286.453125 368.503906 C 288.464844 360 289.964844 353.703125 291.03125 349.257812 C 291.601562 346.875 292.0625 344.984375 292.382812 343.6875 C 292.542969 343.03125 292.671875 342.527344 292.757812 342.183594 C 292.914062 341.589844 293.148438 340.691406 294.175781 340.691406 C 294.457031 340.691406 297.257812 341.96875 302.570312 344.519531 C 304.746094 345.566406 307.28125 346.785156 308.832031 347.515625 C 310.25 338.738281 316.726562 295.3125 321.570312 262.824219 C 323.273438 251.398438 324.8125 241.074219 325.929688 233.609375 C 326.488281 229.878906 326.941406 226.859375 327.257812 224.773438 C 327.417969 223.726562 327.539062 222.917969 327.625 222.367188 C 327.789062 221.324219 327.929688 220.421875 329.058594 220.421875 C 329.386719 220.421875 330.992188 221.539062 333.878906 223.777344 C 334.96875 224.621094 336.289062 225.640625 337.285156 226.40625 C 339.152344 218.703125 346.171875 188.742188 349.449219 174.71875 L 69.207031 174.71875 C 73.625 207.632812 81.566406 266.570312 82.671875 273.984375 C 84.039062 274.308594 87.34375 275.015625 92.53125 276.097656 C 93.21875 276.238281 93.667969 276.332031 93.753906 276.351562 C 94.496094 276.515625 94.683594 277.09375 94.867188 277.648438 C 94.957031 277.933594 95.089844 278.351562 95.257812 278.890625 C 95.589844 279.964844 96.066406 281.527344 96.664062 283.5 C 97.785156 287.199219 99.367188 292.457031 101.496094 299.585938 C 105.421875 312.710938 110.613281 330.140625 115.191406 345.523438 C 120.570312 363.601562 125.710938 380.867188 127.644531 387.265625 C 129.425781 384.460938 132.511719 379.546875 135.148438 375.34375 C 136.878906 372.582031 138.535156 369.945312 139.761719 368 C 140.375 367.023438 140.882812 366.222656 141.238281 365.664062 C 141.980469 364.5 142.179688 364.1875 142.914062 364.1875 C 143.867188 364.1875 144.046875 364.726562 144.53125 366.167969 C 144.769531 366.871094 145.105469 367.894531 145.527344 369.164062 C 146.367188 371.699219 147.527344 375.234375 148.835938 379.214844 C 152.5 390.355469 158.347656 408.132812 160.058594 412.960938 C 163.773438 411.015625 175.277344 404.78125 183.210938 400.464844 C 183.402344 400.359375 183.617188 400.304688 183.835938 400.304688 Z M 93.179688 278.90625 L 93.183594 278.90625 Z M 93.179688 278.90625 " fill-opacity="1" fill-rule="nonzero"/></g><path fill="#ffffff" d="M 101.84375 284.058594 C 101.75 284.058594 101.660156 284.050781 101.566406 284.035156 L 91.808594 282.375 C 90.917969 282.222656 90.316406 281.375 90.46875 280.484375 C 90.621094 279.59375 91.46875 278.996094 92.359375 279.144531 L 102.113281 280.804688 C 103.007812 280.957031 103.605469 281.804688 103.453125 282.695312 C 103.320312 283.492188 102.625 284.058594 101.84375 284.058594 Z M 101.84375 284.058594 " fill-opacity="1" fill-rule="nonzero"/><path fill="#ffffff" d="M 142.675781 373.941406 C 142.398438 373.941406 142.113281 373.867188 141.855469 373.71875 C 141.074219 373.261719 140.808594 372.261719 141.261719 371.480469 L 159.238281 340.546875 C 159.695312 339.765625 160.695312 339.5 161.476562 339.953125 C 162.257812 340.40625 162.523438 341.410156 162.070312 342.191406 L 144.09375 373.125 C 143.789062 373.648438 143.242188 373.941406 142.675781 373.941406 Z M 142.675781 373.941406 " fill-opacity="1" fill-rule="nonzero"/><path fill="#ffffff" d="M 181.304688 406.496094 C 180.601562 406.496094 179.953125 406.039062 179.738281 405.328125 L 176.894531 395.90625 C 176.632812 395.039062 177.121094 394.125 177.988281 393.863281 C 178.851562 393.601562 179.765625 394.09375 180.027344 394.957031 L 182.875 404.382812 C 183.136719 405.25 182.644531 406.164062 181.78125 406.421875 C 181.621094 406.472656 181.460938 406.496094 181.304688 406.496094 Z M 181.304688 406.496094 " fill-opacity="1" fill-rule="nonzero"/><path fill="#ffffff" d="M 250.34375 466.722656 L 245.601562 466.722656 C 244.695312 466.722656 243.960938 465.992188 243.960938 465.085938 C 243.960938 464.183594 244.695312 463.449219 245.601562 463.449219 L 250.34375 463.449219 C 251.246094 463.449219 251.980469 464.183594 251.980469 465.085938 C 251.980469 465.992188 251.246094 466.722656 250.34375 466.722656 Z M 250.34375 466.722656 " fill-opacity="1" fill-rule="nonzero"/><path fill="#ffffff" d="M 294.996094 347.75 C 294.722656 347.75 294.441406 347.679688 294.1875 347.535156 L 251.589844 323.246094 C 250.804688 322.800781 250.527344 321.800781 250.976562 321.015625 C 251.425781 320.226562 252.425781 319.953125 253.210938 320.402344 L 295.808594 344.691406 C 296.59375 345.136719 296.867188 346.136719 296.421875 346.925781 C 296.117188 347.453125 295.566406 347.75 294.996094 347.75 Z M 294.996094 347.75 " fill-opacity="1" fill-rule="nonzero"/><path fill="#ffffff" d="M 329.753906 228.175781 C 329.402344 228.175781 329.050781 228.0625 328.75 227.832031 L 306.675781 210.722656 C 305.960938 210.167969 305.832031 209.140625 306.386719 208.425781 C 306.9375 207.710938 307.96875 207.582031 308.683594 208.136719 L 330.757812 225.246094 C 331.472656 225.800781 331.601562 226.828125 331.046875 227.542969 C 330.726562 227.957031 330.242188 228.175781 329.753906 228.175781 Z M 329.753906 228.175781 " fill-opacity="1" fill-rule="nonzero"/><path fill="#ffffff" d="M 253.757812 96.84375 L 277.445312 118.507812 " fill-opacity="1" fill-rule="nonzero"/><path fill="#144b91" d="M 277.445312 119.816406 C 277.128906 119.816406 276.8125 119.703125 276.5625 119.476562 L 252.875 97.8125 C 252.339844 97.324219 252.304688 96.496094 252.792969 95.960938 C 253.28125 95.425781 254.109375 95.390625 254.644531 95.878906 L 278.328125 117.542969 C 278.863281 118.03125 278.902344 118.859375 278.414062 119.390625 C 278.15625 119.675781 277.800781 119.820312 277.445312 119.820312 Z M 277.445312 119.816406 " fill-opacity="1" fill-rule="nonzero"/><path fill="#ffffff" d="M 141.332031 113.449219 L 151.199219 115.472656 " fill-opacity="1" fill-rule="nonzero"/><path fill="#144b91" d="M 151.199219 116.78125 C 151.113281 116.78125 151.023438 116.773438 150.9375 116.753906 L 141.070312 114.730469 C 140.359375 114.585938 139.902344 113.894531 140.050781 113.183594 C 140.195312 112.476562 140.886719 112.019531 141.59375 112.164062 L 151.460938 114.1875 C 152.171875 114.335938 152.628906 115.027344 152.480469 115.734375 C 152.355469 116.355469 151.808594 116.78125 151.199219 116.78125 Z M 151.199219 116.78125 " fill-opacity="1" fill-rule="nonzero"/><path fill="#ffffff" d="M 290.726562 100.230469 L 287.296875 102.109375 " fill-opacity="1" fill-rule="nonzero"/><path fill="#144b91" d="M 287.296875 103.421875 C 286.835938 103.421875 286.386719 103.175781 286.148438 102.742188 C 285.800781 102.105469 286.03125 101.308594 286.667969 100.960938 L 290.097656 99.082031 C 290.734375 98.734375 291.53125 98.964844 291.878906 99.597656 C 292.226562 100.234375 291.992188 101.03125 291.359375 101.378906 L 287.925781 103.257812 C 287.726562 103.367188 287.511719 103.421875 287.296875 103.421875 Z M 287.296875 103.421875 " fill-opacity="1" fill-rule="nonzero"/></svg>