<svg xmlns="http://www.w3.org/2000/svg" xmlns:xlink="http://www.w3.org/1999/xlink" width="559" zoomAndPan="magnify" viewBox="0 0 419.25 595.499987" height="794" preserveAspectRatio="xMidYMid meet" version="1.0"><defs><clipPath id="d561795436"><path d="M 0 0.28125 L 418.5 0.28125 L 418.5 594.71875 L 0 594.71875 Z M 0 0.28125 " clip-rule="nonzero"/></clipPath><clipPath id="06df084ea3"><path d="M 77.277344 239 L 316.101562 239 L 316.101562 528.242188 L 77.277344 528.242188 Z M 77.277344 239 " clip-rule="nonzero"/></clipPath><clipPath id="5a88454796"><path d="M 77.277344 66.433594 L 316.101562 66.433594 L 316.101562 228 L 77.277344 228 Z M 77.277344 66.433594 " clip-rule="nonzero"/></clipPath></defs><g clip-path="url(#d561795436)"><path fill="#ffffff" d="M 0 0.28125 L 418.5 0.28125 L 418.5 594.71875 L 0 594.71875 Z M 0 0.28125 " fill-opacity="1" fill-rule="nonzero"/><path fill="#ffffff" d="M 0 0.28125 L 418.5 0.28125 L 418.5 594.71875 L 0 594.71875 Z M 0 0.28125 " fill-opacity="1" fill-rule="nonzero"/></g><g clip-path="url(#06df084ea3)"><path fill="#ffffff" d="M 77.277344 239.273438 L 316.398438 239.273438 L 290.800781 336.703125 L 264.921875 348.316406 L 242.804688 434.128906 L 222.804688 441.875 L 193.417969 528.339844 L 159.75 397.355469 L 130.929688 379.933594 L 113.28125 307.667969 L 88.109375 292.515625 L 77.277344 239.273438 " fill-opacity="1" fill-rule="nonzero"/></g><g clip-path="url(#5a88454796)"><path fill="#144b91" d="M 119.878906 163.929688 L 139.898438 161.875 L 153.785156 126.328125 L 177.46875 123.171875 L 197.074219 84.667969 L 211.144531 151.703125 L 170.101562 167.449219 L 213.441406 162.667969 L 220.238281 195.050781 L 90.945312 218.496094 Z M 277.929688 176.617188 L 259.964844 171.410156 L 248 139.734375 L 225.726562 129.664062 L 197.511719 66.433594 L 172.871094 114.824219 L 148.664062 118.046875 L 134.832031 153.457031 L 115.429688 155.449219 L 77.277344 227.402344 L 316.398438 227.402344 L 277.929688 176.617188 " fill-opacity="1" fill-rule="nonzero"/></g></svg>