<?xml version="1.0" encoding="UTF-8" standalone="no"?>
<!DOCTYPE svg PUBLIC "-//W3C//DTD SVG 1.1//EN" "http://www.w3.org/Graphics/SVG/1.1/DTD/svg11.dtd">
<svg xmlns="http://www.w3.org/2000/svg" version="1.1" viewBox="0.00 0.00 560.00 250.00">
<path fill="#f97215" d="
  M 248.64 63.46
  A 0.31 0.31 0.0 0 0 249.16 63.76
  L 256.44 56.49
  A 0.95 0.95 0.0 0 0 256.43 55.14
  Q 254.10 52.91 253.35 51.56
  A 0.70 0.70 0.0 0 1 253.79 50.54
  L 269.56 46.37
  A 1.13 1.13 0.0 0 1 270.94 47.75
  L 266.84 63.17
  A 1.17 1.16 30.0 0 1 264.89 63.69
  L 261.97 60.77
  A 0.57 0.57 0.0 0 0 261.17 60.77
  L 255.37 66.57
  A 0.89 0.88 -61.7 0 0 255.81 68.06
  C 257.61 68.45 258.26 69.68 259.26 71.10
  Q 276.06 95.02 264.89 122.23
  C 264.19 123.93 263.26 125.03 262.53 126.50
  A 0.31 0.31 0.0 0 0 262.80 126.95
  L 534.20 126.95
  A 0.55 0.55 0.0 0 1 534.75 127.50
  L 534.75 127.85
  A 0.75 0.74 0.0 0 1 534.00 128.59
  L 261.86 128.59
  A 0.97 0.97 0.0 0 0 261.10 128.96
  C 254.27 137.59 248.01 143.87 237.56 148.04
  Q 216.77 156.34 197.81 144.94
  C 195.75 143.70 194.12 143.75 192.41 145.50
  Q 189.61 148.36 186.02 152.48
  A 1.09 1.08 59.2 0 0 185.78 153.45
  C 186.74 157.52 185.06 160.33 182.36 163.36
  Q 169.90 177.39 149.42 200.67
  C 139.02 212.49 122.85 197.66 132.18 186.19
  Q 136.82 180.49 140.29 176.81
  C 149.80 166.74 159.64 155.18 167.48 146.50
  Q 170.64 142.99 175.07 143.59
  A 1.22 1.21 25.8 0 0 176.12 143.23
  Q 179.53 139.70 182.37 136.31
  Q 184.37 133.93 182.36 130.92
  C 175.43 120.51 171.34 107.76 173.12 95.45
  C 175.04 82.14 181.00 69.92 191.62 61.61
  C 208.04 48.78 229.32 48.12 246.83 59.00
  Q 249.44 60.63 248.64 63.46
  Z
  M 264.74 61.88
  A 0.63 0.63 0.0 0 0 265.84 61.65
  L 269.20 48.98
  A 0.63 0.63 0.0 0 0 268.43 48.21
  L 256.18 51.44
  A 0.63 0.63 0.0 0 0 255.85 52.45
  L 258.43 55.65
  A 0.63 0.63 0.0 0 1 258.39 56.49
  L 228.07 86.81
  A 0.63 0.63 0.0 0 1 227.17 86.81
  L 216.18 75.82
  A 0.63 0.63 0.0 0 0 215.28 75.82
  L 193.18 97.92
  A 0.63 0.63 0.0 0 0 193.14 98.76
  L 194.61 100.59
  A 0.63 0.63 0.0 0 0 195.55 100.63
  L 215.28 80.90
  A 0.63 0.63 0.0 0 1 216.18 80.90
  L 227.15 91.87
  A 0.63 0.63 0.0 0 0 228.05 91.87
  L 261.24 58.67
  A 0.63 0.63 0.0 0 1 262.18 58.72
  L 264.74 61.88
  Z
  M 237.96 138.46
  Q 237.20 139.53 233.68 140.68
  Q 221.25 144.75 209.51 141.29
  C 204.48 139.80 202.34 138.13 197.40 134.85
  Q 194.85 133.16 193.37 130.63
  A 1.83 1.83 0.0 0 1 193.82 128.28
  Q 194.47 127.76 196.08 127.59
  Q 201.43 127.03 218.41 126.86
  A 0.89 0.88 -18.4 0 0 219.12 125.45
  C 218.16 124.16 218.37 122.46 218.38 120.87
  Q 218.46 106.18 218.34 98.46
  A 1.04 1.04 0.0 0 0 217.30 97.44
  L 213.09 97.44
  A 0.83 0.83 0.0 0 0 212.26 98.27
  L 212.26 123.46
  A 2.62 2.61 90.0 0 1 209.65 126.08
  L 208.29 126.08
  A 2.62 2.62 0.0 0 1 205.67 123.46
  L 205.67 111.33
  A 0.60 0.60 0.0 0 0 205.07 110.73
  L 200.16 110.73
  A 0.68 0.68 0.0 0 0 199.48 111.41
  L 199.48 123.88
  A 1.84 1.83 -3.5 0 1 197.87 125.70
  Q 193.64 126.24 190.76 125.33
  C 188.00 124.45 184.40 118.25 183.57 115.77
  Q 178.45 100.42 183.73 85.25
  A 3.91 3.85 -18.0 0 1 184.27 84.21
  Q 185.05 83.11 187.24 79.18
  Q 188.59 76.75 190.94 73.95
  Q 199.64 63.57 213.50 60.49
  C 222.78 58.43 232.45 60.80 241.13 65.03
  A 3.98 3.97 -51.4 0 0 245.37 64.55
  L 246.32 63.79
  A 2.23 2.23 0.0 0 0 246.15 60.20
  C 241.32 57.02 233.92 53.81 228.02 54.54
  A 1.42 1.38 57.5 0 1 227.09 54.32
  L 226.28 53.80
  A 1.60 1.56 63.1 0 0 225.54 53.55
  Q 217.46 52.92 209.37 54.56
  C 193.57 57.77 181.90 70.34 176.94 85.47
  Q 175.22 90.73 175.16 97.73
  C 175.09 105.31 174.74 111.30 177.07 117.48
  Q 179.75 124.63 184.02 130.78
  Q 186.21 133.94 183.42 137.15
  Q 179.07 142.15 177.69 143.78
  A 0.58 0.57 35.8 0 0 177.83 144.64
  Q 181.95 147.22 184.80 150.97
  A 0.57 0.56 -43.9 0 0 185.69 150.98
  Q 189.50 146.39 191.73 144.23
  Q 194.89 141.19 198.47 143.65
  C 203.17 146.88 209.77 149.43 215.56 149.16
  C 218.61 149.01 219.67 148.95 223.33 149.12
  Q 233.46 149.61 243.40 143.89
  Q 252.87 138.45 259.33 128.95
  A 0.14 0.13 -73.0 0 0 259.22 128.74
  L 251.04 128.74
  A 0.41 0.40 20.9 0 0 250.74 128.87
  Q 246.86 133.22 241.85 136.59
  A 0.84 0.82 -61.4 0 1 241.39 136.73
  L 240.62 136.73
  A 0.28 0.27 -64.4 0 1 240.45 136.24
  L 248.74 129.56
  A 0.37 0.37 0.0 0 0 248.50 128.90
  L 195.50 128.90
  A 0.78 0.78 0.0 0 0 194.90 130.17
  C 197.56 133.49 200.51 135.99 204.51 137.86
  Q 218.65 144.48 233.94 139.20
  Q 237.61 137.93 237.69 137.93
  A 0.34 0.33 -72.1 0 1 237.96 138.46
  Z
  M 251.40 126.15
  C 262.92 110.60 262.05 90.75 250.71 75.51
  A 1.87 1.78 17.1 0 1 250.47 75.08
  L 250.00 73.93
  A 1.02 1.02 0.0 0 0 248.33 73.59
  Q 232.60 89.29 230.23 91.73
  C 227.94 94.09 226.52 93.47 224.39 91.21
  Q 221.16 87.77 216.26 82.74
  A 0.64 0.64 0.0 0 0 215.35 82.74
  L 196.24 101.85
  A 1.60 1.59 -44.9 0 1 193.99 101.85
  L 192.02 99.88
  A 1.86 1.85 44.9 0 1 192.01 97.26
  Q 201.07 88.06 213.33 75.87
  C 214.84 74.37 216.06 73.81 217.65 75.41
  Q 219.38 77.14 227.07 84.85
  A 0.75 0.75 0.0 0 0 228.13 84.85
  L 245.64 67.34
  A 0.41 0.41 0.0 0 0 245.23 66.65
  C 241.95 67.67 240.36 66.49 236.94 64.86
  C 228.99 61.07 219.66 60.79 211.58 62.51
  C 198.35 65.32 188.00 76.75 184.29 89.45
  C 182.88 94.28 183.19 98.52 183.04 105.00
  C 182.89 111.14 185.36 118.89 189.95 123.17
  C 191.65 124.76 195.22 124.63 197.26 124.42
  A 0.66 0.65 -2.9 0 0 197.85 123.77
  L 197.85 111.57
  A 2.92 2.92 0.0 0 1 200.77 108.65
  L 205.03 108.65
  A 2.37 2.37 0.0 0 1 207.40 111.02
  L 207.40 123.21
  A 1.33 1.33 0.0 0 0 208.73 124.54
  L 209.36 124.54
  A 1.25 1.25 0.0 0 0 210.61 123.26
  Q 210.44 114.10 210.18 104.79
  C 210.12 102.67 210.45 99.36 210.55 97.63
  A 2.19 2.19 0.0 0 1 212.74 95.57
  L 217.75 95.57
  A 2.33 2.33 0.0 0 1 220.08 97.90
  L 220.08 123.48
  A 1.17 1.16 -0.0 0 0 221.25 124.64
  L 221.80 124.64
  A 1.17 1.16 0.0 0 0 222.97 123.48
  L 222.97 104.33
  A 2.38 2.37 90.0 0 1 225.34 101.95
  L 230.29 101.95
  A 2.36 2.36 0.0 0 1 232.65 104.31
  L 232.65 123.54
  A 1.00 0.99 90.0 0 0 233.64 124.54
  L 234.67 124.54
  A 1.03 1.03 0.0 0 0 235.70 123.51
  L 235.70 91.17
  A 3.09 3.08 0.0 0 1 238.79 88.09
  L 242.43 88.09
  A 2.82 2.81 0.0 0 1 245.25 90.90
  L 245.25 123.49
  A 0.90 0.90 0.0 0 0 246.24 124.39
  C 247.81 124.24 249.34 124.58 250.08 125.85
  Q 250.30 126.23 250.42 126.31
  A 0.71 0.71 0.0 0 0 251.40 126.15
  Z
  M 253.38 127.19
  L 259.29 127.19
  A 2.35 2.34 10.6 0 0 261.48 125.70
  Q 263.17 121.36 264.21 119.13
  C 268.83 109.16 269.00 97.57 265.68 87.38
  Q 262.61 77.94 257.17 70.60
  A 1.63 1.63 0.0 0 0 254.71 70.42
  L 252.55 72.59
  A 2.15 2.15 0.0 0 0 252.35 75.42
  Q 263.08 89.60 260.81 108.04
  C 260.07 114.10 256.71 121.91 252.98 126.33
  A 0.52 0.52 0.0 0 0 253.38 127.19
  Z
  M 233.59 126.50
  Q 234.72 126.97 236.26 126.94
  Q 241.75 126.80 248.23 127.04
  A 0.35 0.34 0.8 0 0 248.59 126.70
  L 248.59 126.37
  A 0.36 0.36 0.0 0 0 248.23 126.01
  L 245.64 126.01
  A 2.01 2.00 -90.0 0 1 243.64 124.00
  L 243.64 90.74
  A 0.37 0.37 0.0 0 0 243.27 90.37
  L 237.98 90.37
  A 0.46 0.45 -90.0 0 0 237.53 90.83
  Q 237.23 115.08 237.43 122.76
  Q 237.52 126.36 233.76 125.86
  A 0.33 0.33 0.0 0 0 233.59 126.50
  Z
  M 232.28 125.87
  Q 231.08 124.96 230.89 123.84
  A 1.77 1.64 42.8 0 1 230.87 123.58
  L 230.96 104.72
  A 0.69 0.68 90.0 0 0 230.28 104.03
  L 225.22 104.03
  A 0.65 0.65 0.0 0 0 224.57 104.68
  L 224.57 126.09
  A 0.62 0.61 0.0 0 0 225.19 126.70
  L 232.00 126.70
  A 0.46 0.46 0.0 0 0 232.28 125.87
  Z
  M 134.10 201.04
  Q 137.23 203.80 142.25 203.22
  Q 145.90 202.80 148.75 199.51
  Q 172.58 172.09 182.47 160.98
  Q 184.85 158.31 184.73 154.70
  A 0.71 0.70 89.4 0 0 184.05 154.02
  C 181.34 153.96 180.19 152.78 178.22 151.03
  C 176.25 149.29 174.93 148.31 174.53 145.62
  A 0.71 0.70 -6.5 0 0 173.77 145.03
  Q 170.18 145.36 167.82 148.05
  Q 158.03 159.25 133.79 186.31
  Q 130.88 189.55 130.92 193.22
  Q 130.97 198.27 134.10 201.04
  Z
  M 176.3402 145.8278
  A 4.91 1.23 -136.3 0 0 179.0402 150.1092
  A 4.91 1.23 -136.3 0 0 183.4398 152.6122
  A 4.91 1.23 -136.3 0 0 180.7398 148.3308
  A 4.91 1.23 -136.3 0 0 176.3402 145.8278
  Z"
/>
</svg>
