<?xml version="1.0" encoding="UTF-8" standalone="no"?>
<!DOCTYPE svg PUBLIC "-//W3C//DTD SVG 1.1//EN" "http://www.w3.org/Graphics/SVG/1.1/DTD/svg11.dtd">
<svg xmlns="http://www.w3.org/2000/svg" version="1.1" viewBox="0.00 0.00 560.00 250.00">
<g fill="#fc7623">
<path d="
  M 165.72 49.11
  C 170.97 49.11 172.72 54.28 170.46 58.32
  C 169.91 59.31 168.35 60.20 167.48 60.71
  A 1.15 1.15 0.0 0 0 166.90 61.70
  C 166.90 71.61 166.65 83.85 167.07 97.12
  Q 167.22 101.70 165.76 101.70
  Q 164.30 101.70 164.44 97.13
  C 164.84 83.86 164.57 71.62 164.56 61.71
  A 1.15 1.15 0.0 0 0 163.98 60.71
  C 163.11 60.20 161.55 59.31 160.99 58.32
  C 158.73 54.29 160.47 49.12 165.72 49.11
  Z
  M 169.49 54.96
  A 3.74 3.74 0.0 0 0 165.75 51.22
  A 3.74 3.74 0.0 0 0 162.01 54.96
  A 3.74 3.74 0.0 0 0 165.75 58.70
  A 3.74 3.74 0.0 0 0 169.49 54.96
  Z"
/>
<path d="
  M 250.34 66.33
  C 257.45 73.33 262.27 82.92 263.33 93.00
  C 263.61 95.59 263.64 99.17 260.62 99.92
  Q 257.53 100.69 256.06 98.32
  A 1.99 1.97 -62.9 0 1 255.75 97.36
  Q 254.88 81.91 244.78 71.97
  Q 234.69 62.02 219.23 61.37
  A 1.99 1.97 -27.9 0 1 218.26 61.08
  Q 215.87 59.65 216.60 56.55
  C 217.30 53.51 220.88 53.49 223.47 53.73
  C 233.57 54.64 243.24 59.32 250.34 66.33
  Z
  M 246.27 70.43
  C 253.23 77.27 257.40 86.32 257.77 96.17
  A 1.72 1.72 0.0 0 0 259.52 97.83
  L 259.58 97.83
  A 1.70 1.70 0.0 0 0 261.25 96.09
  C 260.98 85.27 256.40 75.30 248.81 67.84
  C 241.22 60.38 231.17 55.97 220.35 55.88
  A 1.70 1.70 0.0 0 0 218.64 57.58
  L 218.64 57.64
  A 1.72 1.72 0.0 0 0 220.33 59.36
  C 230.19 59.56 239.30 63.58 246.27 70.43
  Z"
/>
<path d="
  M 242.08 74.51
  C 247.78 80.04 251.31 87.23 251.89 95.25
  Q 252.19 99.46 248.25 99.96
  C 244.94 100.38 244.07 98.10 243.78 95.10
  Q 242.92 86.21 236.64 80.12
  Q 230.36 74.02 221.45 73.44
  C 218.44 73.24 216.14 72.44 216.45 69.12
  Q 216.83 65.16 221.05 65.34
  C 229.08 65.67 236.38 68.98 242.08 74.51
  Z
  M 238.12 78.65
  Q 245.38 85.71 246.47 96.79
  Q 246.57 97.76 247.57 97.93
  A 1.71 1.64 4.6 0 0 249.58 96.29
  C 249.42 88.46 246.29 81.55 240.64 76.05
  C 234.99 70.56 227.99 67.63 220.16 67.69
  A 1.71 1.64 83.8 0 0 218.58 69.74
  Q 218.78 70.74 219.75 70.81
  Q 230.86 71.58 238.12 78.65
  Z"
/>
<path d="
  M 174.12 108.45
  A 1.18 1.17 -89.5 0 1 172.98 107.28
  Q 172.97 99.72 172.84 81.75
  C 172.80 76.91 173.58 73.41 178.98 73.56
  Q 184.83 73.73 187.68 73.64
  A 0.88 0.88 0.0 0 0 188.41 73.19
  L 189.31 71.55
  A 2.35 2.34 84.1 0 1 189.82 70.92
  C 198.22 63.84 204.39 78.02 195.74 80.48
  C 192.92 81.29 189.69 79.33 188.43 76.70
  A 1.03 1.02 -13.0 0 0 187.51 76.13
  L 177.01 76.13
  A 1.68 1.68 0.0 0 0 175.33 77.81
  L 175.33 107.55
  A 0.91 0.91 0.0 0 1 174.40 108.46
  L 174.12 108.45
  Z
  M 197.84 74.83
  A 3.73 3.73 0.0 0 0 194.11 71.10
  A 3.73 3.73 0.0 0 0 190.38 74.83
  A 3.73 3.73 0.0 0 0 194.11 78.56
  A 3.73 3.73 0.0 0 0 197.84 74.83
  Z"
/>
<path d="
  M 233.89 82.67
  C 237.53 86.09 240.95 92.08 240.10 97.21
  A 3.52 3.22 -4.4 0 1 237.63 99.85
  C 234.32 100.80 232.66 98.83 232.24 95.45
  Q 231.74 91.48 228.49 88.43
  Q 225.24 85.37 221.25 85.12
  C 217.85 84.91 215.78 83.37 216.52 80.01
  A 3.52 3.22 -89.2 0 1 219.00 77.38
  C 224.07 76.22 230.26 79.26 233.89 82.67
  Z
  M 229.95 86.80
  Q 233.65 90.28 234.93 96.70
  Q 235.20 98.04 236.73 97.85
  A 1.39 1.38 85.7 0 0 237.93 96.44
  C 237.82 91.62 235.93 87.48 232.42 84.18
  C 228.91 80.88 224.67 79.25 219.85 79.43
  A 1.39 1.38 0.8 0 0 218.51 80.71
  Q 218.42 82.25 219.77 82.44
  Q 226.26 83.33 229.95 86.80
  Z"
/>
<path d="
  M 221.85 105.34
  C 221.43 106.84 222.14 111.21 221.17 113.18
  Q 219.38 116.80 216.38 117.07
  Q 210.36 117.62 197.49 117.03
  A 0.87 0.86 11.8 0 1 196.72 115.86
  L 196.88 115.46
  A 1.22 1.22 0.0 0 1 198.01 114.70
  L 216.62 114.70
  A 2.47 2.47 0.0 0 0 219.09 112.23
  L 219.09 105.57
  A 0.87 0.85 15.3 0 0 218.66 104.83
  Q 215.78 103.15 213.26 99.79
  A 2.50 2.43 -68.1 0 1 212.81 98.69
  C 211.83 92.06 218.70 87.26 224.68 91.27
  C 227.67 93.29 229.06 97.74 226.83 100.93
  Q 224.89 103.67 222.33 104.79
  A 0.85 0.85 0.0 0 0 221.85 105.34
  Z
  M 225.57 97.26
  A 5.26 5.26 0.0 0 0 220.31 92.00
  A 5.26 5.26 0.0 0 0 215.05 97.26
  A 5.26 5.26 0.0 0 0 220.31 102.52
  A 5.26 5.26 0.0 0 0 225.57 97.26
  Z"
/>
<path d="
  M 116.59 134.07
  A 0.49 0.48 14.0 0 0 116.16 133.36
  L 25.77 133.36
  A 0.85 0.85 0.0 0 1 24.92 132.51
  L 24.92 131.84
  A 0.89 0.89 0.0 0 1 25.81 130.95
  Q 74.08 130.87 117.50 131.03
  Q 118.39 131.03 120.98 129.00
  Q 124.85 125.98 129.00 125.64
  A 0.67 0.67 0.0 0 0 129.61 125.01
  Q 130.21 112.42 140.11 105.66
  C 151.32 98.00 165.70 102.08 172.44 113.25
  A 0.70 0.70 0.0 0 0 173.28 113.54
  Q 187.37 108.40 195.41 121.15
  Q 196.21 122.42 197.42 127.91
  A 1.17 1.16 2.6 0 0 198.23 128.79
  C 203.47 130.43 208.14 133.01 210.05 138.23
  C 212.73 145.55 209.41 153.67 202.32 157.11
  Q 199.25 158.60 191.48 158.59
  Q 146.22 158.57 132.74 158.57
  Q 125.19 158.57 120.56 154.82
  C 114.23 149.67 112.71 141.26 116.59 134.07
  Z
  M 171.44 115.56
  C 166.74 107.16 158.53 103.02 148.76 104.36
  C 140.61 105.48 134.09 112.44 132.52 120.29
  Q 131.93 123.21 131.84 126.17
  A 1.41 1.40 -2.4 0 1 130.59 127.52
  Q 120.96 128.68 117.84 136.35
  C 114.81 143.81 117.81 151.68 124.97 154.91
  Q 127.85 156.21 134.51 156.17
  Q 165.01 155.99 196.48 156.14
  C 205.26 156.19 210.54 147.59 208.11 139.46
  C 207.10 136.08 203.60 132.21 199.63 131.39
  Q 196.78 130.80 196.50 130.74
  A 1.84 1.83 3.5 0 1 195.07 129.13
  C 194.34 121.76 191.18 116.28 183.65 114.62
  C 180.09 113.83 176.96 114.70 173.08 116.16
  A 1.33 1.33 0.0 0 1 171.44 115.56
  Z"
/>
<path d="
  M 239.42 116.04
  C 239.96 114.60 242.10 112.68 243.48 112.24
  C 246.09 111.40 249.02 112.49 250.32 114.97
  C 252.19 118.56 250.27 122.17 247.00 123.95
  C 243.96 125.61 240.89 122.40 239.48 119.79
  A 1.10 1.10 0.0 0 0 238.51 119.21
  L 231.75 119.21
  A 3.35 3.34 20.1 0 0 229.20 120.39
  L 226.53 123.50
  A 3.39 3.35 8.8 0 1 225.24 124.43
  Q 223.22 125.25 219.26 125.29
  Q 209.86 125.36 202.05 125.10
  A 1.21 1.21 0.0 0 1 200.88 123.93
  L 200.88 123.66
  A 0.98 0.97 90.0 0 1 201.85 122.68
  L 223.18 122.68
  A 2.37 2.35 22.4 0 0 224.85 121.99
  L 228.50 118.34
  A 4.40 4.38 -69.1 0 1 231.34 117.06
  L 238.69 116.59
  A 0.85 0.84 -81.8 0 0 239.42 116.04
  Z
  M 248.88 117.98
  A 3.69 3.69 0.0 0 0 245.19 114.29
  A 3.69 3.69 0.0 0 0 241.50 117.98
  A 3.69 3.69 0.0 0 0 245.19 121.67
  A 3.69 3.69 0.0 0 0 248.88 117.98
  Z"
/>
<path d="
  M 466.29 132.19
  Q 466.29 132.63 466.14 132.98
  A 0.62 0.62 0.0 0 1 465.57 133.36
  L 272.61 133.36
  A 0.94 0.93 -75.0 0 0 271.80 133.83
  C 268.99 138.85 264.46 139.98 260.79 134.53
  A 2.62 2.61 72.3 0 0 258.57 133.38
  Q 244.53 133.68 213.50 133.44
  Q 210.98 133.42 210.98 132.10
  Q 210.98 130.78 213.50 130.77
  Q 244.53 130.55 258.57 130.86
  A 2.62 2.61 -72.2 0 0 260.79 129.71
  C 264.47 124.26 268.99 125.39 271.80 130.41
  A 0.94 0.93 75.0 0 0 272.61 130.89
  L 465.57 131.02
  A 0.62 0.62 0.0 0 1 466.14 131.40
  Q 466.29 131.75 466.29 132.19
  Z
  M 269.71 132.15
  A 3.70 3.70 0.0 0 0 266.01 128.45
  A 3.70 3.70 0.0 0 0 262.31 132.15
  A 3.70 3.70 0.0 0 0 266.01 135.85
  A 3.70 3.70 0.0 0 0 269.71 132.15
  Z"
/>
<path d="
  M 134.28 192.52
  Q 134.25 192.55 132.85 194.33
  C 127.61 200.97 119.45 193.58 123.45 187.74
  C 125.96 184.07 130.32 184.25 133.02 187.76
  Q 133.21 188.02 134.09 189.24
  A 1.09 1.07 -17.4 0 0 134.97 189.69
  Q 147.28 189.72 153.18 189.75
  C 155.73 189.77 155.77 189.20 156.41 186.81
  Q 156.45 186.68 156.43 163.28
  A 1.14 1.13 90.0 0 1 157.56 162.14
  L 157.83 162.14
  A 0.88 0.87 89.3 0 1 158.70 163.00
  Q 158.88 173.11 158.71 186.21
  Q 158.64 191.87 152.74 191.98
  Q 137.49 192.28 135.37 192.11
  A 1.38 1.34 23.5 0 0 134.28 192.52
  Z
  M 132.01 191.02
  A 3.76 3.76 0.0 0 0 128.25 187.26
  A 3.76 3.76 0.0 0 0 124.49 191.02
  A 3.76 3.76 0.0 0 0 128.25 194.78
  A 3.76 3.76 0.0 0 0 132.01 191.02
  Z"
/>
<path d="
  M 165.89 161.97
  Q 167.38 161.97 167.23 166.64
  C 166.79 180.19 167.04 192.69 167.03 202.81
  A 1.18 1.18 0.0 0 0 167.62 203.83
  C 168.51 204.35 170.10 205.26 170.66 206.27
  C 172.97 210.39 171.18 215.68 165.81 215.67
  C 160.46 215.66 158.68 210.37 161.00 206.26
  C 161.56 205.25 163.15 204.34 164.05 203.82
  A 1.18 1.18 0.0 0 0 164.64 202.81
  C 164.66 192.69 164.94 180.19 164.54 166.64
  Q 164.40 161.97 165.89 161.97
  Z
  M 169.65 209.71
  A 3.79 3.79 0.0 0 0 165.86 205.92
  A 3.79 3.79 0.0 0 0 162.07 209.71
  A 3.79 3.79 0.0 0 0 165.86 213.50
  A 3.79 3.79 0.0 0 0 169.65 209.71
  Z"
/>
<path d="
  M 194.45 183.80
  Q 194.76 183.48 195.87 181.86
  C 197.19 179.93 200.01 178.84 202.26 179.71
  C 206.51 181.34 207.99 186.81 204.43 189.84
  C 200.81 192.91 196.64 191.00 194.83 187.30
  A 1.56 1.55 -15.6 0 0 193.27 186.43
  Q 191.77 186.59 180.56 186.48
  C 175.70 186.43 173.19 185.25 173.01 180.28
  Q 172.75 173.48 172.92 163.24
  A 1.20 1.19 -89.5 0 1 174.11 162.06
  L 174.40 162.06
  A 0.94 0.94 0.0 0 1 175.34 163.00
  Q 175.40 180.80 175.40 181.01
  C 175.47 183.57 177.13 184.12 179.49 184.11
  Q 193.20 184.10 193.54 184.14
  A 1.12 1.11 24.2 0 0 194.45 183.80
  Z
  M 204.20 185.41
  A 3.73 3.73 0.0 0 0 200.47 181.68
  A 3.73 3.73 0.0 0 0 196.74 185.41
  A 3.73 3.73 0.0 0 0 200.47 189.14
  A 3.73 3.73 0.0 0 0 204.20 185.41
  Z"
/>
</g>
</svg>
