<?xml version="1.0" encoding="UTF-8" standalone="no"?>
<!DOCTYPE svg PUBLIC "-//W3C//DTD SVG 1.1//EN" "http://www.w3.org/Graphics/SVG/1.1/DTD/svg11.dtd">
<svg xmlns="http://www.w3.org/2000/svg" version="1.1" viewBox="0.00 0.00 560.00 250.00">
<g fill="#fa6b17">
<path d="
  M 24.92 125.59
  L 24.92 125.10
  A 0.69 0.69 0.0 0 1 25.61 124.41
  L 303.74 124.41
  A 1.57 1.56 -88.2 0 0 305.30 122.94
  Q 305.50 119.59 305.35 106.12
  C 305.30 102.07 305.87 99.60 310.27 99.44
  Q 315.39 99.25 346.17 99.18
  A 1.15 1.15 0.0 0 1 347.30 100.14
  L 347.31 100.19
  A 0.85 0.85 0.0 0 1 346.47 101.18
  Q 328.27 101.18 310.27 101.15
  Q 307.12 101.14 307.13 104.08
  Q 307.20 120.06 307.20 120.50
  Q 307.21 122.70 306.33 124.78
  A 1.22 1.19 47.1 0 0 306.31 125.70
  C 307.70 129.40 307.14 136.66 307.13 146.14
  A 2.14 2.00 -57.9 0 0 307.28 146.92
  Q 308.08 148.88 310.31 148.89
  Q 329.22 149.01 351.23 148.91
  Q 354.71 148.90 354.69 146.02
  Q 354.61 135.92 354.78 126.10
  A 2.31 2.30 0.4 0 1 357.09 123.83
  L 368.92 123.83
  A 1.37 1.37 0.0 0 0 370.29 122.46
  L 370.29 103.44
  A 2.00 1.98 -35.3 0 1 370.41 102.76
  Q 371.69 99.36 374.79 99.33
  Q 394.87 99.15 411.20 99.27
  A 1.05 1.04 -90.0 0 1 412.24 100.32
  L 412.24 100.60
  A 0.48 0.48 0.0 0 1 411.77 101.08
  Q 400.64 101.27 378.25 101.09
  Q 375.64 101.07 373.63 101.58
  A 1.68 1.68 0.0 0 0 372.35 103.24
  Q 372.43 110.30 372.42 116.49
  Q 372.42 121.36 371.28 124.51
  A 1.30 1.30 0.0 0 0 371.31 125.48
  Q 371.71 126.37 371.89 128.27
  Q 372.04 129.86 372.32 146.52
  A 2.45 2.45 0.0 0 0 374.77 148.93
  L 417.20 148.93
  A 2.49 2.48 90.0 0 0 419.68 146.44
  L 419.68 125.87
  A 2.03 2.03 0.0 0 1 421.71 123.84
  L 433.92 123.84
  A 1.26 1.25 -0.4 0 0 435.18 122.57
  Q 435.06 111.79 435.30 104.32
  Q 435.46 99.16 440.99 99.18
  Q 445.78 99.20 476.28 99.15
  A 1.09 1.09 0.0 0 1 477.37 100.24
  L 477.37 100.58
  A 0.57 0.56 -90.0 0 1 476.81 101.15
  Q 449.61 101.17 440.00 101.28
  C 437.45 101.31 437.13 102.50 437.16 104.81
  C 437.30 113.59 437.97 118.76 436.28 124.49
  A 1.65 1.60 -47.7 0 0 436.31 125.47
  Q 436.98 127.40 437.01 128.75
  Q 437.06 130.78 437.17 146.74
  Q 437.19 148.81 439.82 148.84
  Q 464.87 149.16 482.47 148.81
  Q 484.39 148.77 484.50 146.24
  Q 484.68 142.02 484.56 126.80
  Q 484.53 123.94 487.24 123.96
  Q 491.88 123.98 534.34 123.87
  A 0.68 0.67 -0.0 0 1 535.02 124.54
  L 535.02 125.49
  A 0.48 0.47 -0.0 0 1 534.54 125.96
  L 486.95 125.96
  A 0.41 0.41 0.0 0 0 486.54 126.36
  Q 486.37 130.82 486.48 140.68
  C 486.55 146.61 487.07 150.84 480.06 150.84
  Q 441.69 150.85 440.52 150.79
  C 435.57 150.54 434.99 147.62 435.02 142.97
  Q 435.09 131.90 435.08 127.12
  A 0.94 0.93 0.0 0 0 434.14 126.19
  L 421.99 126.19
  A 0.42 0.42 0.0 0 0 421.57 126.60
  Q 421.49 129.08 421.55 143.52
  C 421.56 148.54 420.86 150.75 415.50 150.80
  Q 406.07 150.89 376.02 150.80
  Q 370.31 150.79 370.21 145.24
  Q 370.04 135.20 370.14 127.35
  A 1.21 1.20 -0.2 0 0 368.91 126.14
  L 357.35 126.34
  A 0.66 0.66 0.0 0 0 356.70 126.96
  Q 356.68 127.30 356.67 144.74
  C 356.66 150.49 353.27 150.79 348.77 150.82
  Q 334.88 150.91 311.50 150.70
  C 308.87 150.67 305.64 149.92 305.50 146.77
  Q 305.35 143.36 305.21 127.46
  A 1.29 1.29 0.0 0 0 303.92 126.18
  L 25.51 126.18
  A 0.59 0.59 0.0 0 1 24.92 125.59
  Z"
/>
<path d="
  M 328.94 127.70
  A 0.52 0.52 0.0 0 0 329.73 127.71
  Q 343.38 112.13 352.12 101.88
  C 354.80 98.73 361.18 104.10 359.16 107.35
  Q 358.55 108.35 357.11 110.03
  Q 348.72 119.86 332.45 138.62
  Q 329.32 142.23 325.89 138.19
  Q 318.30 129.24 314.87 125.24
  A 3.06 3.05 -40.7 0 1 315.20 120.93
  L 317.52 118.93
  A 2.93 2.93 0.0 0 1 321.65 119.24
  L 328.94 127.70
  Z
  M 316.66 121.78
  A 1.95 1.94 -40.7 0 0 316.45 124.52
  Q 322.19 131.22 327.78 137.65
  Q 329.51 139.63 330.98 137.88
  Q 344.49 121.76 357.34 107.25
  A 2.11 2.10 40.8 0 0 357.12 104.25
  L 355.88 103.18
  A 1.94 1.94 0.0 0 0 353.15 103.37
  L 330.59 129.36
  A 1.59 1.58 45.1 0 1 328.19 129.35
  L 320.72 120.67
  A 1.81 1.81 0.0 0 0 318.17 120.48
  L 316.66 121.78
  Z"
/>
<path d="
  M 393.87 127.68
  A 0.52 0.52 0.0 0 0 394.66 127.69
  Q 408.32 112.13 417.06 101.89
  C 419.74 98.75 426.11 104.12 424.09 107.37
  Q 423.48 108.36 422.04 110.04
  Q 413.65 119.86 397.37 138.60
  Q 394.24 142.21 390.81 138.17
  Q 383.23 129.22 379.81 125.21
  A 3.06 3.05 -40.7 0 1 380.14 120.91
  L 382.46 118.91
  A 2.93 2.93 0.0 0 1 386.59 119.22
  L 393.87 127.68
  Z
  M 381.61 121.72
  A 1.95 1.94 -40.6 0 0 381.39 124.45
  Q 387.11 131.14 392.68 137.56
  Q 394.40 139.54 395.87 137.80
  Q 409.37 121.73 422.21 107.27
  A 2.10 2.10 0.0 0 0 422.00 104.28
  L 420.76 103.21
  A 1.94 1.94 0.0 0 0 418.04 103.39
  L 395.49 129.30
  A 1.58 1.58 0.0 0 1 393.10 129.28
  L 385.66 120.61
  A 1.80 1.80 0.0 0 0 383.11 120.42
  L 381.61 121.72
  Z"
/>
<path d="
  M 458.84 127.68
  A 0.52 0.52 0.0 0 0 459.63 127.69
  Q 473.27 112.15 482.00 101.93
  C 484.68 98.79 491.04 104.16 489.02 107.40
  Q 488.41 108.39 486.97 110.07
  Q 478.59 119.87 462.33 138.58
  Q 459.21 142.19 455.78 138.15
  Q 448.22 129.22 444.80 125.21
  A 3.05 3.05 0.0 0 1 445.13 120.92
  L 447.45 118.92
  A 2.92 2.92 0.0 0 1 451.57 119.23
  L 458.84 127.68
  Z
  M 446.57 121.75
  A 1.95 1.94 -40.6 0 0 446.35 124.48
  Q 452.07 131.17 457.64 137.59
  Q 459.36 139.57 460.83 137.83
  Q 474.32 121.77 487.16 107.31
  A 2.10 2.10 0.0 0 0 486.94 104.32
  L 485.71 103.25
  A 1.94 1.94 0.0 0 0 482.99 103.44
  L 460.45 129.33
  A 1.58 1.58 0.0 0 1 458.06 129.32
  L 450.62 120.65
  A 1.80 1.80 0.0 0 0 448.07 120.46
  L 446.57 121.75
  Z"
/>
</g>
</svg>
